<svg xmlns="http://www.w3.org/2000/svg" width="128" height="26" fill="none" class="facebook" viewBox="0 0 128 26"><path fill="#fff" d="M8.5952 25.2133H3.81846V13.1315H0.564453V9.19788H3.81833V6.39884C3.81833 3.08197 5.25753 0.703125 10.0213 0.703125C11.0289 0.703125 12.6107 0.909175 12.6107 0.909175V4.56175H10.9493C9.25642 4.56175 8.59545 5.0842 8.59545 6.52862V9.19788H12.5473L12.1954 13.1315H8.59532L8.5952 25.2133ZM19.5555 8.88353C19.486 8.88353 19.4143 8.8861 19.3435 8.88791C14.9142 8.88791 12.8877 12.2683 12.8877 17.0669C12.8877 23.1118 15.5163 25.5312 19.3781 25.5312C21.5875 25.5312 23.0391 24.5876 23.9214 22.8268V25.215H28.4648V9.19955H23.9214V11.6625C23.201 10.0779 21.7088 8.90231 19.5555 8.88353ZM20.7108 12.6679C22.5711 12.6679 23.6877 13.9845 23.6877 16.2239L23.692 18.5112C23.692 20.0205 22.7697 21.7864 20.7108 21.7864C17.5454 21.7864 17.6299 18.3185 17.6299 17.1635C17.6299 13.2782 19.3165 12.6679 20.7108 12.6679ZM30.2996 17.2081C30.2996 15.262 30.2078 8.89395 38.3849 8.89395C41.6673 8.89395 43.0379 9.95288 43.0379 9.95288L41.9363 13.4196C41.9363 13.4196 40.5674 12.6548 38.7838 12.6548C36.4993 12.6548 35.0416 13.9985 35.0416 16.3627L35.0442 18.0579C35.0442 20.3296 36.4507 21.8461 38.7885 21.8461C40.4134 21.8461 41.9111 21.0741 41.9111 21.0741L43.0099 24.4684C43.0099 24.4684 41.7567 25.534 38.4078 25.534C30.622 25.534 30.2998 19.8207 30.2998 17.2081H30.2996ZM69.6773 8.88791C74.1067 8.88791 76.1651 12.2683 76.1651 17.0669C76.1651 23.1118 73.5363 25.5312 69.6746 25.5312C67.4652 25.5312 65.8319 24.5877 64.9496 22.8268V25.215L60.4634 25.2132V1.19008L65.2266 0.768593V11.4455C65.914 9.57757 68.1733 8.88791 69.6774 8.88791H69.6773ZM68.3419 12.6679C66.4816 12.6679 65.2266 13.9845 65.2266 16.2239L65.2221 18.5112C65.2194 20.0205 66.0913 21.7864 68.3419 21.7864C71.5073 21.7864 71.4227 18.3185 71.4227 17.1635C71.4227 13.2782 69.7364 12.6679 68.3419 12.6679ZM51.3024 8.90115C46.2786 8.90115 43.6264 11.6803 43.6264 16.619V17.5366C43.6264 23.9467 47.3509 25.597 51.7913 25.597C56.1074 25.597 58.061 24.3722 58.061 24.3722L57.1697 21.1103C57.1697 21.1103 54.8717 22.1024 52.3624 22.1024C49.7612 22.1024 48.6424 21.4297 48.3557 18.8933H58.4418V16.2765C58.4418 10.9192 55.4652 8.90102 51.3023 8.90102L51.3024 8.90115ZM51.4235 12.1673C53.1625 12.1673 54.2893 13.2493 54.2274 15.7586H48.3644C48.4661 13.1176 49.6813 12.1675 51.4235 12.1675V12.1673ZM85.6627 8.87916C80.5036 8.87916 77.7876 11.8289 77.7876 17.1151C77.7876 24.3681 82.4694 25.5355 85.6713 25.5355C90.3587 25.5355 93.4772 22.9751 93.4772 17.181C93.4772 11.1503 89.9708 8.87916 85.6627 8.87916V8.87916ZM85.5978 12.6811C87.8663 12.6811 88.7652 14.4037 88.7652 16.3645V18.0503C88.7652 20.4257 87.5074 21.7996 85.5892 21.7996C83.7952 21.7996 82.5343 20.5144 82.5343 18.0503V16.3645C82.5343 13.7365 84.0346 12.6811 85.5978 12.6811V12.6811ZM102.966 8.87916C97.8072 8.87916 95.0912 11.8289 95.0912 17.1151C95.0912 24.3681 99.773 25.5355 102.975 25.5355C107.662 25.5355 110.781 22.9751 110.781 17.181C110.781 11.1503 107.274 8.87916 102.966 8.87916V8.87916ZM102.901 12.6811C105.17 12.6811 106.069 14.4037 106.069 16.3645V18.0503C106.069 20.4257 104.811 21.7996 102.893 21.7996C101.099 21.7996 99.8379 20.5144 99.8379 18.0503V16.3645C99.8379 13.7365 101.338 12.6811 102.901 12.6811V12.6811ZM112.581 25.2133V1.19008L117.358 0.768593V16.8705L122.097 9.19788H127.142L122.198 17.1445L127.332 25.2133H122.273L117.358 17.3785V25.2133H112.581Z"/></svg>