<svg class="google" width="104" height="35" viewBox="0 0 104 35" fill="#000"
                xmlns="http://www.w3.org/2000/svg">
                <path
                    d="M12.7552 0H13.6761C16.8735 0.0705236 20.0187 1.37521 22.2777 3.68486C21.4436 4.54877 20.5922 5.37743 19.7754 6.24134C18.5069 5.0777 16.9778 4.17853 15.3096 3.86117C12.842 3.33224 10.1834 3.80828 8.11553 5.23638C5.85653 6.73501 4.32736 9.27386 3.9972 11.989C3.63228 14.6689 4.37949 17.4899 6.0998 19.5703C7.75061 21.5979 10.2703 22.8673 12.8768 22.9554C15.3096 23.0965 17.8466 22.3384 19.619 20.6105C21.0092 19.394 21.6521 17.5428 21.8607 15.7444C18.9761 15.7444 16.0915 15.762 13.207 15.7444V12.1124H25.3534C25.979 16.0089 25.0754 20.399 22.1561 23.1846C20.2099 25.1593 17.5164 26.3229 14.7709 26.5521C12.1122 26.8166 9.36666 26.3053 7.0034 25.0006C4.17097 23.4667 1.91197 20.875 0.799844 17.8248C-0.242771 15.0215 -0.260148 11.848 0.712959 9.02702C1.59918 6.45291 3.30212 4.17853 5.49161 2.59174C7.59422 1.02259 10.1486 0.158678 12.7552 0Z"
                    fill="#fff" />
                <path
                    d="M82.437 0.916992H86.1556V26.0939C84.9219 26.0939 83.6708 26.1115 82.437 26.0762C82.4544 17.7016 82.437 9.30929 82.437 0.916992V0.916992Z"
                    fill="#fff" />
                <path
                    d="M33.6242 9.64468C35.918 9.20391 38.4029 9.69757 40.297 11.0904C42.0173 12.3246 43.2163 14.2639 43.5812 16.3796C44.0504 18.8303 43.4596 21.5102 41.8956 23.4496C40.2101 25.6182 37.4471 26.7818 34.7537 26.6055C32.2862 26.4644 29.8882 25.2127 28.4285 23.1675C26.7777 20.9107 26.378 17.8077 27.2816 15.1631C28.1852 12.3246 30.7396 10.156 33.6242 9.64468V9.64468ZM34.1455 12.9945C33.2072 13.2414 32.3383 13.7879 31.7128 14.5637C30.0272 16.6088 30.1315 19.9411 31.9908 21.8452C33.0508 22.9383 34.6495 23.4496 36.1265 23.1499C37.4993 22.903 38.6983 21.9686 39.3586 20.7344C40.5055 18.6364 40.1753 15.7449 38.4203 14.1053C37.2908 13.0474 35.6399 12.6066 34.1455 12.9945Z"
                    fill="#fff" />
                <path
                    d="M52.0426 9.64403C54.6665 9.13273 57.5337 9.87323 59.4973 11.7421C62.6946 14.6512 63.0422 20.0992 60.314 23.449C58.6632 25.5648 55.9872 26.7284 53.3459 26.605C50.8262 26.5345 48.3413 25.265 46.8469 23.167C45.1613 20.8573 44.7964 17.6837 45.7521 14.9862C46.7079 12.2358 49.2101 10.1377 52.0426 9.64403V9.64403ZM52.5639 12.9939C51.6255 13.2407 50.7567 13.7873 50.1311 14.5454C48.4629 16.5554 48.5324 19.8347 50.3223 21.7565C51.3823 22.9025 53.0331 23.4667 54.5622 23.1493C55.9176 22.8849 57.134 21.9681 57.7944 20.7339C58.9239 18.6182 58.5937 15.7267 56.8212 14.087C55.6917 13.0292 54.0409 12.606 52.5639 12.9939Z"
                    fill="#fff" />
                <path
                    d="M67.6662 10.6672C69.6646 9.39774 72.3232 9.04512 74.478 10.1382C75.1557 10.438 75.7117 10.9493 76.2504 11.4606C76.2678 10.9845 76.2504 10.4909 76.2678 9.99719C77.4321 10.0148 78.5963 9.99719 79.7779 10.0148V25.5652C79.7606 27.9102 79.1698 30.3961 77.5016 32.1063C75.677 33.9928 72.8793 34.5746 70.3596 34.1867C67.6662 33.7812 65.3203 31.7889 64.2777 29.2677C65.3203 28.7564 66.4151 28.3509 67.4924 27.8749C68.1006 29.3206 69.3344 30.5548 70.8809 30.8369C72.4275 31.119 74.2173 30.7311 75.2252 29.4264C76.3026 28.0865 76.3026 26.2529 76.2504 24.6132C75.4511 25.4066 74.5301 26.1118 73.418 26.3763C71.0026 27.0639 68.3439 26.2176 66.4846 24.5603C64.6079 22.903 63.4957 20.3465 63.6 17.8077C63.6521 14.9338 65.2508 12.1658 67.6662 10.6672V10.6672ZM71.2632 12.9239C70.2032 13.1002 69.2128 13.6997 68.5351 14.5283C66.9016 16.503 66.9016 19.6589 68.5524 21.5983C69.4908 22.7443 71.0026 23.379 72.4622 23.2203C73.835 23.0793 75.1035 22.1978 75.7812 20.9812C76.9281 18.9184 76.737 16.1151 75.1904 14.3168C74.2347 13.206 72.7055 12.6595 71.2632 12.9239V12.9239Z"
                    fill="#fff" />
                <path
                    d="M90.6186 11.5656C92.7038 9.59097 95.9186 8.92099 98.5946 9.96122C101.132 10.9309 102.748 13.3816 103.564 15.9028C99.7936 17.4896 96.0402 19.0588 92.2694 20.6455C92.7907 21.6505 93.59 22.5673 94.6674 22.9375C96.1792 23.4841 97.9864 23.2902 99.2549 22.2676C99.7589 21.8797 100.159 21.3684 100.541 20.8747C101.497 21.5271 102.452 22.1618 103.408 22.8141C102.053 24.8769 99.7762 26.3227 97.3261 26.5519C94.6153 26.8869 91.7307 25.829 89.9756 23.678C87.0911 20.2929 87.3691 14.6158 90.6186 11.5656V11.5656ZM92.4779 14.8273C91.8871 15.6913 91.6438 16.7491 91.6612 17.7893C94.1809 16.7315 96.7005 15.6736 99.2202 14.5981C98.8031 13.6108 97.7953 13.0114 96.77 12.8527C95.1192 12.553 93.3989 13.4521 92.4779 14.8273V14.8273Z"
                    fill="#fff" />
            </svg>
