<svg width="177" height="33" viewBox="0 0 177 33" fill="none" xmlns="http://www.w3.org/2000/svg">
<path d="M15.2524 19.3384C16.8194 16.3585 21.3974 9.9316 27.6819 11.7633" stroke="white" stroke-width="2.27576"/>
<circle cx="15.3342" cy="14.3142" r="13.0982" stroke="white" stroke-width="2.27576"/>
<path d="M15.4062 2.13V31.9547" stroke="white" stroke-width="2.27576"/>
<path d="M41.4852 8.71565H42.8329C43.4507 8.71565 43.928 9.13683 43.928 10.0634V23.6534C43.928 24.58 43.4507 25.0011 42.8329 25.0011H41.4852V26.6859H51.6776C58.3322 26.6859 62.7406 22.7549 62.7406 16.8303C62.7406 10.9058 58.4726 7.03095 51.2003 7.03095H41.4852V8.71565ZM49.0944 23.7938V8.71565H50.8634C54.3732 8.71565 57.2372 10.7654 57.2372 16.7742C57.2372 22.5583 55.0471 25.0011 51.6496 25.0011H50.3018C49.4875 25.0011 49.0944 24.6361 49.0944 23.7938ZM80.6019 19.4978C80.6019 14.7525 77.1202 12.0008 72.7119 12.0008C68.3036 12.0008 64.8499 14.7525 64.8499 19.4978C64.8499 24.2149 68.3036 26.9666 72.7119 26.9666C77.1202 26.9666 80.6019 24.2149 80.6019 19.4978ZM70.0445 19.4135C70.0445 15.4264 70.9149 13.5732 72.7119 13.5732C74.537 13.5732 75.4074 15.4264 75.4074 19.4135C75.4074 23.4849 74.537 25.3942 72.7119 25.3942C70.9149 25.3942 70.0445 23.4849 70.0445 19.4135ZM90.2113 25.1135H89.5936C89.1163 25.1135 88.8074 24.8046 88.8074 24.1588V17.1111C89.5375 15.7072 90.6606 14.6121 91.9803 14.6121C93.1315 14.6121 93.7212 15.3141 93.7212 16.5495V24.1588C93.7212 24.8046 93.3842 25.1135 92.935 25.1135H92.3172V26.6859H100.741V25.1135H99.4772C98.9999 25.1135 98.663 24.8046 98.663 24.1588V17.1953C98.663 13.8259 97.0344 12.0008 93.9739 12.0008C91.7276 12.0008 89.9867 13.152 88.7793 14.7244H88.639V12.2816H81.7878V13.854H83.0513C83.5287 13.854 83.8656 14.1629 83.8656 14.8087V24.1588C83.8656 24.8046 83.5287 25.1135 83.0513 25.1135H81.7878V26.6859H90.2113V25.1135ZM118.961 23.5411V22.4741H117.557V23.2884C117.557 23.4288 117.557 23.5972 117.529 23.7376C117.501 24.5238 117.22 24.8608 116.799 24.8888C116.771 24.9169 116.743 24.9169 116.715 24.9169C116.181 24.9169 115.929 24.58 115.929 23.6534V17.6165C115.929 17.42 115.901 17.2234 115.901 17.0269C115.704 13.4328 113.402 12.0008 109.302 12.0008C104.922 12.0008 102.788 13.8259 102.62 15.6229C102.592 15.7353 102.592 15.8195 102.592 15.9037C102.592 16.8303 103.041 17.4761 103.715 17.785C104.024 17.9535 104.417 18.0377 104.838 18.0377C105.989 18.0377 107.028 17.448 107.028 16.1284C107.028 15.4545 106.719 14.921 106.186 14.6683C105.989 14.556 105.736 14.4717 105.456 14.4437C105.933 14.1348 106.607 13.8259 107.589 13.7698H107.758C110.088 13.7698 110.931 15.0614 110.959 16.3811V16.5215C110.959 17.6446 110.65 17.9535 106.073 19.4416C105.736 19.5539 105.399 19.6662 105.034 19.7786C102.788 20.5367 102.002 21.744 102.002 23.513C102.002 25.4223 103.406 26.8543 105.905 26.9386C106.466 26.9666 107 26.9105 107.477 26.8262C109.078 26.5735 110.313 25.8154 111.212 24.7765H111.352C111.801 25.9558 112.868 26.7701 114.806 26.8543C115.451 26.9386 116.041 26.9105 116.575 26.7982C118.175 26.4331 118.961 25.3381 118.961 23.5411ZM108.713 24.5519C107.618 24.5519 106.888 23.878 106.888 22.5864C106.888 20.6771 108.656 20.2559 110.959 19.217V21.8002C110.959 22.081 110.931 22.3899 110.903 22.6706C110.734 23.878 109.752 24.5519 108.713 24.5519ZM130.682 23.0076V21.5194H129.278V22.8672C129.278 24.2992 128.689 24.7765 127.846 24.7765C127.004 24.7765 126.555 24.2992 126.555 22.8672V13.854H130.738V12.2816H126.555V7.76099H123.887L123.466 9.52993C122.961 11.692 122.174 12.2816 120.686 12.2816H119.704V13.854H121.613V21.9687C121.613 25.7312 123.438 26.9666 126.33 26.9666C129.363 26.9666 130.682 25.4223 130.682 23.0076ZM146.986 21.716H145.104C144.711 23.7938 143.476 25.0011 141.539 25.0854H141.258C139.011 25.0854 137.776 23.6534 137.579 20.6209C137.551 20.284 137.523 19.8909 137.523 19.4697H147.21C147.21 14.5279 144.122 12.0008 140.191 12.0008C135.867 12.0008 132.441 14.7525 132.441 19.4978C132.441 24.2149 135.867 26.9666 140.247 26.9666C144.15 26.9666 146.452 24.945 146.986 21.716ZM140.219 13.5732C141.875 13.5732 142.662 14.921 142.746 17.8973H137.579C137.748 14.9491 138.646 13.5732 140.219 13.5732ZM162.504 25.0011H161.718C160.342 25.0011 160.286 24.4115 160.988 23.4568L164.357 18.88L167.699 23.4568C168.317 24.2711 168.288 25.0011 167.221 25.0011H166.155V26.6859H176.768V25.0011H176.263C175.252 25.0011 174.831 24.6361 173.567 22.9514L168.204 15.7353L171.883 10.7654C173.146 9.0526 173.792 8.71565 174.747 8.71565H175.533V7.03095H168.401V8.71565H168.878C170.254 8.71565 170.338 9.3053 169.636 10.26L166.885 13.9944L164.161 10.26C163.543 9.41762 163.571 8.71565 164.638 8.71565H165.677V7.03095H155.092V8.71565H155.597C156.608 8.71565 157.029 9.0526 158.293 10.7654L163.01 17.1392L158.742 22.9514C157.478 24.6642 156.271 25.0011 155.316 25.0011H154.53V26.6859H162.504V25.0011Z" fill="white"/>
</svg>
