<svg xmlns="http://www.w3.org/2000/svg" width="131" height="33" fill="none" class="pinterest" viewBox="0 0 131 33"><path fill="#fff" d="M14.1176 0.288195C12.4239 0.480777 9.88337 1.28073 8.43791 2.08068C4.55414 4.19908 1.92602 7.50259 0.611967 11.9023C0.349155 12.7615 0.0425421 15.1022 0.0571427 16.1984C0.0571427 17.1613 0.349155 19.5167 0.524363 20.0796C0.611967 20.3463 0.801775 20.9833 0.962382 21.4722C1.22519 22.3017 2.49545 24.909 2.71446 25.0868C2.75826 25.1312 2.99187 25.4275 3.21088 25.7682C3.7511 26.583 5.16737 28.0347 6.23321 28.8643C7.05085 29.5013 9.35775 30.8494 9.64976 30.8642C9.72276 30.8642 9.73736 30.3013 9.69356 29.5606C9.59136 27.9162 9.89797 25.6793 10.555 23.398C10.6718 23.0128 10.7594 22.5091 10.7594 22.2869C10.7594 22.0647 10.8178 21.8277 10.8908 21.7536C10.9638 21.6647 11.0952 21.2351 11.1682 20.7907C11.2558 20.3463 11.4018 19.6649 11.504 19.2797C11.65 18.7019 11.6354 18.4797 11.431 17.8575C11.139 16.9095 11.1244 15.3688 11.4164 14.6281C12.1027 12.8652 12.8619 12.1986 14.1468 12.1986C15.6944 12.1986 16.4391 13.3837 16.147 15.3688C16.0156 16.2725 15.6506 17.6946 15.417 18.139C15.3586 18.2723 15.2564 18.6427 15.2126 18.9538C15.1542 19.2797 15.0374 19.7389 14.9644 19.9908C14.76 20.5685 15.1542 21.6944 15.6798 22.124C16.1762 22.5239 17.2129 22.6425 18.1619 22.4202C18.8336 22.2721 19.111 22.0943 19.8118 21.4129C20.644 20.5833 21.2719 19.6204 21.2719 19.1612C21.2719 19.0279 21.3449 18.8501 21.4325 18.7612C21.8413 18.3464 22.0603 15.117 21.7537 13.7541C21.4179 12.2579 20.3812 10.7913 19.038 9.93208C17.6947 9.05806 14.9206 8.80622 13.2123 9.39878C12.0151 9.81357 10.9492 10.5098 10.263 11.3246C9.64976 12.0505 9.00733 13.2356 9.00733 13.6504C9.00733 13.7985 8.93433 13.9911 8.84673 14.08C8.75912 14.1689 8.65692 14.7318 8.61312 15.3392C8.54011 16.2428 8.59852 16.6576 8.86133 17.5465C9.03653 18.1538 9.35775 18.8649 9.54756 19.1315C9.94177 19.6649 9.94177 19.8722 9.57676 21.2944C9.47455 21.6796 9.29935 22.0351 9.19714 22.0795C8.2773 22.4351 6.40842 20.1982 5.78059 17.9761C5.54698 17.1317 5.53238 14.1244 5.76599 13.2356C5.8682 12.8652 6.0434 12.3616 6.16021 12.0949C6.27701 11.8431 6.37922 11.5912 6.37922 11.532C6.37922 11.4727 6.67123 10.9691 7.03625 10.4209C8.93433 7.51741 12.0151 5.97676 15.9134 5.97676C16.8041 5.97676 17.7239 6.03601 17.9721 6.11008C19.987 6.74708 20.5272 6.95448 21.3157 7.42852C22.8487 8.3618 23.9584 9.6358 25.068 11.769C25.141 11.9023 25.2432 12.2579 25.287 12.5542C25.3454 12.8504 25.4476 13.1319 25.5207 13.1763C25.5937 13.2208 25.6521 14.1837 25.6521 15.3244C25.6521 17.3835 25.5061 18.2131 24.8928 19.9019C24.2066 21.7536 22.4399 23.7979 20.8338 24.5979C19.914 25.0423 18.1911 25.5312 17.5049 25.5312C16.5851 25.5312 14.7746 24.7609 14.2782 24.1387C14.0446 23.8572 13.8255 23.9609 13.8255 24.3609C13.8255 24.509 13.7671 24.7609 13.6795 24.909C13.6065 25.0423 13.4751 25.4571 13.4021 25.8275C12.9787 27.7829 12.3801 29.368 11.4602 30.8494C11.1828 31.3086 11.4164 31.5753 12.1757 31.679C12.5553 31.7382 13.0663 31.8419 13.2999 31.916C13.8839 32.1086 17.0523 32.0789 18.1181 31.8864C19.0818 31.7086 20.644 31.2642 21.3449 30.9679C25.7543 29.131 29.0978 25.3979 30.5433 20.6426C31.3171 18.1094 31.3609 15.1614 30.6601 12.1986C30.4265 11.2357 30.3535 11.0135 29.7256 9.53211C28.8204 7.36927 26.7763 4.83608 24.703 3.28061C22.9217 1.94736 21.1697 1.17703 18.4393 0.510405C17.6801 0.332637 14.979 0.184498 14.1176 0.288195ZM53.0575 5.63603C52.488 5.72492 51.5828 6.67301 51.3492 7.41371C51.101 8.22848 51.3492 9.1025 52.05 9.78394C53.5977 11.3098 56.2842 9.87283 55.9484 7.68036C55.744 6.28785 54.4883 5.39901 53.0575 5.63603ZM37.1428 6.51006C37.0114 6.6582 37.0114 24.5238 37.1574 24.7312C37.2304 24.8497 37.8582 24.8942 39.0846 24.8794L40.9097 24.8646L40.9827 21.8573C41.0411 19.413 41.0995 18.8205 41.2747 18.7168C41.3915 18.6427 42.3844 18.5686 43.4794 18.5686C45.8739 18.5686 46.8814 18.3909 47.9764 17.7983C49.4073 17.0132 50.2395 15.8873 50.6922 14.0948C50.9696 12.9689 50.9696 12.1542 50.6776 10.9987C50.4147 9.96171 50.2979 9.70987 49.6701 8.86548C48.8963 7.81369 48.1078 7.23594 46.823 6.77671C46.1076 6.53969 45.5089 6.49524 41.6398 6.4508C39.2307 6.42117 37.2012 6.4508 37.1428 6.51006ZM45.1585 10.1987C46.1368 10.5098 46.6186 10.9542 46.8376 11.7542C47.115 12.806 46.9106 13.7837 46.2974 14.3763C45.6257 15.0133 45.0271 15.1614 43.0706 15.1614C41.7858 15.1614 41.3915 15.117 41.2163 14.9244C41.0265 14.7466 40.9827 14.317 40.9827 12.6282C40.9827 9.96171 40.9681 9.97652 42.9976 9.97652C43.8737 9.97652 44.7205 10.0654 45.1585 10.1987ZM70.768 9.32471C70.768 10.3469 70.695 11.3098 70.622 11.4727C70.5198 11.6653 70.3154 11.7542 69.965 11.7542C69.7022 11.7542 69.454 11.8135 69.4248 11.9023C69.4102 11.9764 69.4102 12.4949 69.454 13.043C69.527 14.0207 69.5416 14.0355 69.9796 14.1392C70.2278 14.1837 70.5052 14.2726 70.5928 14.3318C70.7242 14.4059 70.768 15.5762 70.768 18.539C70.768 22.5239 70.7826 22.6721 71.1038 23.2646C71.7755 24.5238 72.8267 24.9683 74.9584 24.909L76.3893 24.8646L76.4331 23.4276L76.4769 21.9758H76.1119C75.557 21.9758 74.7394 21.5314 74.6518 21.1759C74.608 20.9981 74.5642 19.4278 74.5642 17.665C74.5642 15.2355 74.608 14.4207 74.754 14.3022C74.8562 14.2133 75.265 14.1244 75.6592 14.0948L76.3893 14.0504V11.8283L75.5862 11.7838C75.1482 11.7542 74.7394 11.6505 74.681 11.5616C74.6226 11.4579 74.5642 10.495 74.5642 9.41359V7.45815H70.768V9.32471ZM125.039 7.54703C124.98 7.60629 124.936 8.53957 124.936 9.62099C124.936 11.7246 124.922 11.7542 124.119 11.7542C123.754 11.7542 123.754 11.769 123.798 12.8949C123.841 14.0207 123.856 14.0504 124.236 14.0948C124.44 14.1244 124.688 14.2281 124.761 14.317C124.849 14.4207 124.936 16.2132 124.98 18.4945C125.024 20.687 125.097 22.6869 125.155 22.9239C125.331 23.5757 126.236 24.4053 127.097 24.6868C128.061 25.0127 130.514 25.0423 130.762 24.7312C130.879 24.5979 130.923 24.0646 130.893 23.2943L130.85 22.0499L130.339 21.961C129.784 21.8721 129.156 21.5759 128.995 21.324C128.937 21.2351 128.879 19.6204 128.879 17.739C128.879 13.8726 128.791 14.1244 130.061 14.1244C130.893 14.1244 130.966 13.9763 130.893 12.6282L130.85 11.8283L129.901 11.7542L128.952 11.6801L128.879 9.60618L128.806 7.53222L126.966 7.48778C125.958 7.47297 125.097 7.50259 125.039 7.54703ZM63.5407 11.3987C62.8253 11.5912 61.993 12.0801 61.4382 12.6578C60.7666 13.3689 60.5914 13.3245 60.5184 12.4208L60.4746 11.8283H56.8244V24.8646L58.6641 24.8942C60.4746 24.9386 60.5184 24.9238 60.606 24.5979C60.6498 24.4201 60.6936 22.5388 60.6936 20.4056C60.6936 16.1836 60.7082 16.0651 61.5696 15.2355C61.9492 14.8651 62.1536 14.7911 62.9713 14.7466L63.9203 14.6874L64.4898 15.2947C65.1614 16.0058 65.0884 15.3244 65.1468 21.4573C65.1614 23.0869 65.176 24.5238 65.1906 24.672C65.2198 24.8794 65.4534 24.909 67.0887 24.8794L68.9429 24.8646V14.4652L68.5195 13.6208C67.7895 12.1542 66.6652 11.4579 64.9424 11.369C64.3291 11.3542 63.7013 11.3542 63.5407 11.3987ZM81.7915 11.3987C80.2146 11.8283 79.4554 12.2579 78.4772 13.2356C77.1631 14.5837 76.5645 16.1539 76.5645 18.2723C76.5791 21.9906 78.8714 24.746 82.2587 25.0719C85.1497 25.3534 87.3835 24.4942 88.8144 22.5536C89.0188 22.2721 89.4568 21.3685 89.4568 21.2055C89.4568 21.1462 88.61 21.087 87.588 21.087H85.7191L85.2811 21.5462C84.77 22.0795 84.0546 22.4202 83.3976 22.4202C82.7405 22.4202 81.7331 21.9462 81.2659 21.4425C80.9155 21.0425 80.4044 19.8871 80.4044 19.4871C80.4044 19.3538 81.4703 19.3093 84.9014 19.3093C87.3689 19.3093 89.4569 19.2501 89.5591 19.1908C89.7781 19.0427 89.5736 16.6872 89.2524 15.828C88.5954 14.0355 87.3544 12.5245 86.0987 11.9912C85.7337 11.8431 85.3103 11.6505 85.1643 11.5764C84.8576 11.4135 82.2587 11.2802 81.7915 11.3987ZM84.6386 14.6429C85.2081 15.0429 85.7045 15.991 85.6315 16.5243C85.5877 16.865 85.5585 16.865 83.091 16.9095C80.2438 16.9539 80.2292 16.9391 80.6819 15.8725C81.0031 15.1318 81.6455 14.4652 82.2441 14.2726C82.9304 14.0504 84.04 14.2281 84.6386 14.6429ZM103.4 11.3987C101.707 11.8579 100.524 12.6134 99.6043 13.7837C99.2393 14.2578 98.9473 14.7022 98.9473 14.7911C98.9473 14.8651 98.8451 15.1318 98.7137 15.3836C98.5822 15.6206 98.3924 16.3613 98.2902 17.028C97.7792 20.1982 99.1809 23.1609 101.809 24.4942L102.816 25.0127H104.934C107.124 25.0127 107.313 24.9683 108.657 24.2424C109.635 23.7091 111.241 21.6351 110.993 21.2203C110.934 21.1462 110.102 21.087 109.124 21.087H107.328L106.963 21.5166C105.503 23.1906 102.773 22.3314 102.189 20.0056C102.101 19.6945 102.101 19.4278 102.174 19.3686C102.247 19.3241 104.335 19.2945 106.832 19.3093C110.394 19.3093 111.358 19.2797 111.372 19.1315C111.504 17.2798 110.628 14.5392 109.533 13.3541C108.919 12.6875 107.854 11.9468 107.328 11.8135C107.094 11.7542 106.832 11.6505 106.729 11.5764C106.525 11.4135 103.853 11.2802 103.4 11.3987ZM105.678 14.2874C106.335 14.5244 107.094 15.354 107.211 15.991C107.386 16.9539 107.401 16.9539 104.685 16.9095C102.247 16.865 102.232 16.865 102.189 16.5243C102.13 16.1095 102.641 15.0873 103.079 14.7022C103.707 14.1689 104.802 13.9911 105.678 14.2874ZM116.103 11.3987C113.11 12.1245 112.029 13.206 112.015 15.4577C112.015 17.8872 113.212 18.9093 116.76 19.5463C119.198 19.9759 119.899 20.3611 119.87 21.2944C119.855 21.961 119.403 22.3906 118.498 22.5832C117.359 22.835 116.468 22.5536 115.753 21.7388L115.183 21.087H113.416C111.986 21.087 111.65 21.1314 111.65 21.2944C111.65 21.724 112.234 22.8499 112.716 23.4128C113.168 23.9016 113.519 24.1387 114.891 24.8053C115.023 24.8794 115.738 24.9979 116.453 25.0868C117.782 25.2497 120.089 25.1016 120.673 24.8053C120.804 24.746 121.184 24.5535 121.505 24.4053C122.337 24.0053 123.126 23.1017 123.418 22.2425C123.739 21.2648 123.652 19.9019 123.199 18.9538C122.659 17.8427 121.228 17.0428 119.096 16.6576C116.351 16.1688 116.307 16.1539 115.869 15.7243C115.344 15.1762 115.344 14.9836 115.869 14.3911C116.293 13.917 116.322 13.9022 117.49 13.9022C118.658 13.9022 118.687 13.917 119.111 14.3911C119.344 14.6577 119.534 14.9688 119.534 15.0873C119.534 15.2651 119.841 15.3095 121.359 15.3095C123.374 15.3095 123.316 15.354 122.965 14.3022C122.323 12.4356 120.673 11.4875 117.928 11.3839C117.081 11.3542 116.264 11.3542 116.103 11.3987ZM96.6842 11.7098C96.0417 11.932 95.1511 12.6727 94.8737 13.206C94.5963 13.7393 94.3481 13.5171 94.2751 12.6282L94.2021 11.8283H90.5519L90.5081 18.0501C90.4935 21.4722 90.5081 24.4201 90.5519 24.6127C90.6249 24.9386 90.6687 24.9386 92.4208 24.909C93.4282 24.8942 94.2459 24.8053 94.3043 24.7164C94.3627 24.6423 94.4211 23.0721 94.4211 21.2351C94.4211 18.3316 94.4503 17.8131 94.6985 17.1613C95.2095 15.8132 96.3045 15.0133 97.677 15.0133C98.0566 15.0133 98.2172 14.9392 98.261 14.7466C98.3632 14.317 98.3778 12.3171 98.2902 11.8727C98.2026 11.5172 98.1296 11.4579 97.7354 11.4727C97.4726 11.4875 97.0054 11.5912 96.6842 11.7098ZM51.7142 11.932C51.6704 12.0357 51.6558 14.954 51.6704 18.4205L51.7142 24.7164L53.4517 24.7905C54.5029 24.8349 55.2622 24.8053 55.379 24.7164C55.5396 24.5979 55.5834 23.3387 55.5834 18.302C55.598 14.8651 55.5542 11.9764 55.5104 11.9023C55.3644 11.6801 51.7872 11.7098 51.7142 11.932Z"/></svg>