<svg width="26" height="25" viewBox="0 0 26 25" fill="none" xmlns="http://www.w3.org/2000/svg">
<path fill-rule="evenodd" clip-rule="evenodd" d="M18.0394 0.848641L18.0425 0.848633C20.156 0.848637 22.17 1.71679 23.6435 3.24689L23.6453 3.24881C25.1081 4.77458 25.9231 6.80754 25.9195 8.92117C25.9236 11.0347 25.1091 13.0677 23.6467 14.5938L23.644 14.5965C22.7168 15.5579 21.7883 16.544 20.8534 17.5368C18.9456 19.5629 17.0112 21.6172 15.0072 23.5476L14.9997 23.5548C13.8417 24.651 12.0085 24.6128 10.8996 23.4639L2.34652 14.5978C-0.686101 11.4538 -0.687299 6.39299 2.34399 3.24876C3.06654 2.49111 3.93526 1.88787 4.89762 1.47553C5.86116 1.06268 6.8985 0.849809 7.94676 0.849809C8.99502 0.849809 10.0324 1.06268 10.9959 1.47553C11.7236 1.78731 12.3977 2.20824 12.9956 2.72253C13.5937 2.20966 14.2674 1.78963 14.9943 1.478C15.9566 1.06544 16.9923 0.851377 18.0394 0.848641ZM21.9138 4.91068C20.8858 3.8437 19.4938 3.24907 18.0441 3.24864C17.3206 3.25074 16.6049 3.39875 15.94 3.68384C15.2745 3.96913 14.6735 4.38581 14.1729 4.90892L14.1685 4.91353L13.8578 5.23477C13.632 5.46825 13.3212 5.60022 12.9964 5.60052C12.6715 5.60083 12.3605 5.46944 12.1342 5.23639L11.8145 4.90706C11.3156 4.38337 10.7155 3.96642 10.0507 3.68156C9.38584 3.39669 8.67007 3.24981 7.94676 3.24981C7.22345 3.24981 6.50768 3.39669 5.84283 3.68156C5.17798 3.96642 4.5779 4.38334 4.07898 4.90702L4.07369 4.91257C1.93724 7.12653 1.93697 10.7162 4.07385 12.9316L12.6264 21.7972C12.6265 21.7973 12.6263 21.7971 12.6264 21.7972C12.818 21.9955 13.1425 22.0052 13.347 21.8144C15.3086 19.9246 17.1696 17.9479 19.051 15.9496C19.9955 14.9463 20.9452 13.9376 21.9153 12.9317C22.9479 11.8534 23.5228 10.4171 23.5195 8.92408V8.91892C23.5226 7.42549 22.9471 5.98892 21.9138 4.91068Z" fill="#41C67E"/>
</svg>
