<svg class="twitch" width="102" height="34" viewBox="0 0 102 34" fill="none"
                xmlns="http://www.w3.org/2000/svg">
                <path
                    d="M96.9856 6.53252H92.5787V0.338867H82.902L78.4519 6.53252H70.5441L67.9 9.18695V6.53252H61.7303V0.338867H42.3399V6.53252H15.0612L10.6102 0.338867H0.915039V21.5743L13.2544 33.9616H25.5937V30.4223L29.1192 33.9616H52.9165V30.4223L56.442 33.9616H67.9V30.4223L71.4255 33.9616H93.46L101.392 25.9983V10.9566L96.9856 6.53252ZM15.8985 15.3806H9.72885V17.1502H15.8985V24.2287H6.20332L2.6778 20.6894V2.10848H9.72885V8.30214H15.8985V15.3806ZM42.3399 24.2287H21.1868L17.6613 20.6894V8.30214H24.7123V17.1502H26.4751V8.30214H33.5261V17.1502H35.2889V8.30214H42.3399V24.2287ZM51.1537 24.2287H44.1027V8.30214H51.1537V24.2287ZM51.1537 6.53252H44.1027V2.10848H51.1537V6.53252ZM66.1372 15.3806H59.9676V17.1502H66.1372V24.2287H56.442L52.9165 20.6894V2.10848H59.9676V8.30214H66.1372V15.3806ZM82.0021 15.3806H74.951V17.1502H82.0021V24.2287H71.4255L67.9 20.6894V11.8414L71.4255 8.30214H82.0021V15.3806ZM99.6297 24.2287H92.5787V15.3806H90.8159V24.2287H83.7648V2.10848H90.8159V8.30214H96.1042L99.6297 11.8414V24.2287Z"
                    fill="#fff" />
            </svg>
