<svg width="72" height="72" viewBox="0 0 72 72" fill="none" xmlns="http://www.w3.org/2000/svg">
<rect width="72" height="72" fill="#DAF3E6"/>
<path d="M36.5616 51.1054C36.4888 51.1805 36.4017 51.2402 36.3054 51.281C36.209 51.3217 36.1055 51.3427 36.0009 51.3427C35.8963 51.3427 35.7928 51.3217 35.6965 51.281C35.6002 51.2402 35.513 51.1805 35.4402 51.1054L20.6947 35.921C19.3524 34.6042 18.4642 32.8943 18.1587 31.039C17.8532 29.1837 18.1462 27.2794 18.9954 25.6017C19.6502 24.3306 20.5946 23.2313 21.7525 22.3924C22.9104 21.5535 24.2493 20.9985 25.6611 20.7723C27.073 20.5462 28.5182 20.6551 29.8802 21.0902C31.2422 21.5254 32.4828 22.2747 33.5019 23.2777L36.0009 25.5564L38.4999 23.2777C39.5188 22.2747 40.7593 21.5254 42.1212 21.0902C43.4831 20.655 44.9283 20.5461 46.34 20.7723C47.7517 20.9985 49.0905 21.5535 50.2483 22.3924C51.406 23.2313 52.3503 24.3307 53.0049 25.6017C53.8538 27.2793 54.1468 29.1835 53.8416 31.0387C53.5364 32.8938 52.6487 34.6038 51.3072 35.921L36.5616 51.1054Z" stroke="#41C67E" stroke-width="2.76757" stroke-linecap="round" stroke-linejoin="round"/>
</svg>
