<svg class="youtube" width="118" height="27" viewBox="0 0 118 27" fill="none"
                xmlns="http://www.w3.org/2000/svg">
                <path
                    d="M19.8002 26.1999L12.1512 26.0579C9.6745 26.0085 7.19175 26.1073 4.76376 25.5949C1.07006 24.8293 0.808395 21.0755 0.534562 17.9267C0.157281 13.4999 0.303325 8.99282 1.01529 4.60306C1.41691 2.13961 2.99906 0.670183 5.4453 0.509657C13.7029 -0.0707049 22.0153 -0.00279022 30.2546 0.268869C31.1248 0.293565 32.001 0.429394 32.859 0.583746C37.0943 1.33698 37.1978 5.59091 37.4716 9.17187C37.7454 12.7899 37.6298 16.4264 37.1065 20.0197C36.6866 22.9956 35.8834 25.4899 32.4939 25.7307C28.2465 26.0456 24.0964 26.2987 19.8368 26.2185C19.8368 26.1999 19.8124 26.1999 19.8002 26.1999V26.1999ZM15.3033 18.6676C18.5041 16.803 21.6441 14.9693 24.8266 13.1171C21.6197 11.2525 18.4858 9.41883 15.3033 7.56661V18.6676Z"
                    fill="white" />
                <path
                    d="M98.8249 22.8167C98.6789 23.4218 98.5511 23.8972 98.4233 24.4035H95.4294V0.972656H98.9223V9.61643C99.1048 9.38182 99.1961 9.28303 99.2752 9.17807C99.8716 8.34456 100.644 7.80124 101.642 7.59132C103.231 7.27644 104.588 7.98646 105.068 9.53617C105.379 10.4993 105.579 11.5304 105.604 12.5368C105.652 15.1238 105.616 17.7045 105.525 20.2915C105.488 21.0818 105.251 21.8906 104.953 22.6315C103.973 25.0764 100.772 25.4469 99.1839 23.3292C99.0866 23.1995 98.9953 23.0575 98.8249 22.8167V22.8167ZM98.9953 16.3709V20.6558C98.9953 21.3534 99.3604 21.7795 100.048 21.94C100.723 22.1005 101.271 21.835 101.545 21.1991C101.661 20.9336 101.776 20.6558 101.782 20.3779C101.849 17.7601 101.91 15.1423 101.928 12.5183C101.928 12.0305 101.813 11.5242 101.667 11.0488C101.393 10.1906 100.638 9.93749 99.8959 10.4376C99.3361 10.8204 98.9953 11.3637 98.9953 12.0861V16.3709ZM89.5024 7.92472H93.1596V24.4158H90.3057C90.2022 23.7922 90.0988 23.1501 89.9771 22.3969C89.7824 22.6871 89.6667 22.8723 89.545 23.0575C88.5957 24.4467 87.2509 24.9221 85.6627 24.669C84.3057 24.4467 83.4903 23.3847 83.3077 21.6436C83.253 21.125 83.2286 20.6002 83.2286 20.0816C83.2165 16.2227 83.2286 12.3516 83.2286 8.49274V7.91237H86.9284V8.58535C86.9284 12.3145 86.9162 16.0375 86.9406 19.7667C86.9406 20.2977 86.9953 20.8472 87.0866 21.3781C87.1901 21.9215 87.5795 22.119 88.1028 22.082C88.9487 22.0141 89.5329 21.3781 89.5329 20.5261V8.65327C89.5024 8.41248 89.5024 8.19021 89.5024 7.92472V7.92472ZM64.322 7.91237H67.9974V8.61005C67.9974 12.3207 67.9853 16.0252 68.0096 19.7235C68.0096 20.2545 68.0583 20.8039 68.1678 21.3226C68.3078 21.9338 68.6607 22.1314 69.2632 22.0511C70.0968 21.9338 70.6019 21.3473 70.608 20.4891V8.67797V7.93707H74.2652V24.4158H71.4234C71.3199 23.8046 71.2165 23.1748 71.0826 22.3784C70.9001 22.6562 70.7966 22.8167 70.6932 22.9834C69.7439 24.3973 68.4112 24.9159 66.7865 24.6628C65.4843 24.4652 64.6871 23.4897 64.4437 21.8906C64.3768 21.3905 64.3281 20.8966 64.3281 20.3965C64.3159 16.3894 64.3159 12.3639 64.3159 8.35691L64.322 7.91237ZM62.4356 16.7167C62.4234 17.2724 62.3869 17.828 62.3565 18.3837C62.2165 20.0507 62.1496 22.4154 60.823 23.6317C59.9772 24.3973 58.9062 24.6751 57.7987 24.7122C57.3058 24.7245 56.8068 24.7245 56.3139 24.6566C53.9833 24.2985 52.9001 23.2551 52.5107 20.6558C52.0665 17.6551 52.03 14.6051 52.5594 11.6045C53.107 8.49892 54.9934 7.39992 57.9265 7.60367C60.6648 7.80124 61.8879 9.62261 62.2104 12.2157C62.3869 13.7037 62.4721 15.2102 62.4356 16.7167V16.7167ZM58.7115 16.1487C58.7115 15.0929 58.7358 14.0309 58.6993 12.9752C58.675 12.3639 58.5959 11.7465 58.4681 11.1414C58.322 10.4438 57.8839 10.1104 57.3362 10.1227C56.8007 10.1351 56.4235 10.4685 56.2287 11.1167C56.1618 11.3575 56.0888 11.6045 56.0888 11.8453C56.0888 13.5 56.0766 15.1608 56.0644 16.8155C56.0523 18.359 55.8575 19.9766 56.3383 21.4522C56.4843 21.9029 56.8616 22.1499 57.3545 22.1499C57.8352 22.1499 58.1516 21.9091 58.3281 21.4769C58.4681 21.1435 58.5898 20.7793 58.5898 20.4212C58.6324 19.0011 58.7115 17.5749 58.7115 16.1487ZM47.1436 13.0431C47.4661 11.444 47.7703 9.88192 48.105 8.31369C48.5249 6.31945 48.9935 4.32521 49.4073 2.32479C49.5107 1.83703 49.7054 1.71973 50.1618 1.73207C51.1415 1.76912 52.1395 1.74442 53.1861 1.74442C52.8454 3.01629 52.5107 4.22642 52.1821 5.41803C51.1415 9.15955 50.101 12.9134 49.0726 16.6673C48.9935 16.9575 48.9569 17.2724 48.9569 17.5811C48.9448 19.6309 48.9569 21.6745 48.9569 23.7243V24.3911H45.385C45.3728 24.2059 45.3484 24.0207 45.3484 23.8354C45.3484 22.6747 45.2572 21.5078 45.3606 20.3594C45.6223 17.5996 44.7582 15.062 44.0584 12.4936C43.1334 9.09781 42.1963 5.68969 41.2714 2.29392C41.2227 2.13339 41.2044 1.96052 41.1558 1.76294H44.8008C45.5675 5.51064 46.3403 9.25833 47.1436 13.0431ZM117.032 17.3464H110.874C110.94 18.5998 110.965 19.7914 111.093 20.9707C111.184 21.7918 111.628 22.1437 112.328 22.1499C113.058 22.1623 113.484 21.7918 113.654 20.9768C113.709 20.7113 113.746 20.4459 113.77 20.1742C113.794 19.9334 113.807 19.6741 113.825 19.3283C114.865 19.3839 115.882 19.4456 116.886 19.4889C117.47 21.2485 116.417 23.5082 114.646 24.2059C113.253 24.7616 111.823 24.7616 110.399 24.3356C109.346 24.0207 108.561 23.3415 108.208 22.2981C107.88 21.3226 107.569 20.3038 107.502 19.2851C107.32 16.7722 107.253 14.2347 107.63 11.7156C107.697 11.2958 107.813 10.8945 107.94 10.487C108.452 8.80762 109.565 7.77654 111.287 7.60367C112.224 7.51106 113.192 7.5481 114.117 7.70863C115.614 7.97412 116.411 9.06694 116.758 10.4993C116.916 11.1723 117.032 11.8638 117.056 12.5491C117.062 14.1235 117.032 15.6856 117.032 17.3464ZM113.533 15.1793C113.533 13.9383 113.545 12.7714 113.521 11.5983C113.521 11.3205 113.417 11.0303 113.314 10.7648C113.107 10.2462 112.675 10.1042 112.158 10.1042C111.64 10.1042 111.312 10.3697 111.184 10.8451C110.794 12.2713 110.922 13.7284 110.934 15.1917C111.865 15.1793 112.711 15.1793 113.533 15.1793V15.1793Z"
                    fill="white" />
                <path d="M77.0884 4.76988H73.4678V1.79395H84.275V4.75136H80.6787V24.3913H77.0945L77.0884 4.76988Z"
                    fill="white" />
            </svg>
